# xmcd
#
# Track frame offsets: 
#        160
#        22902
#        41212
#        64850
#        83800
#        105592
#        128390
#        145335
#        162652
#        180615
#        203792
#        219402
#
# Disc length: 3196 seconds
#
# Revision: 2
# Processed by: cddbd v1.5.2PL0 Copyright (c) Steve Scherf et al.
# Submitted via: ExactAudioCopyFreeDBPlugin 1.0
#
DISCID=a40c7a0c
DTITLE=Various Artist - Diskoteka Studii Mirazh
DYEAR=1996
DGENRE=Disco
TTITLE0=Svetlana Vladimirskaja - Tol'ko imja
TTITLE1=Malen'kij princ - Ostavte osen' mne
TTITLE2=Svetlana Razina i Feja - Moj put'
TTITLE3=Kolledzh - Moj milyj angel
TTITLE4=Mirazh - Ja zhdu tebja
TTITLE5=Svetlana Vladimirskaja - Moj milyj malchik
TTITLE6=Aleksej Gorbashov - Tvoj samoljot
TTITLE7=Kolledzh - Raduga tvoix snov
TTITLE8=Svetlana Razina i Feja - Nasha muzyka
TTITLE9=Chervez i Sharonova - Zvjozdnaja Pyl'
TTITLE10=Zona aktivnosti - Snezhnyj chelovek
TTITLE11=Chervez i Sharonova - Kto zhe ty
EXTD=
EXTT0=
EXTT1=
EXTT2=
EXTT3=
EXTT4=
EXTT5=
EXTT6=
EXTT7=
EXTT8=
EXTT9=
EXTT10=
EXTT11=
PLAYORDER=
